<svg xmlns="http://www.w3.org/2000/svg"  viewBox="0 0 100 100" width="50px" height="50px"><circle cx="50" cy="50" r="37" fill="#e6edb7"/><circle cx="13" cy="29" r="2" fill="#9f8066"/><circle cx="77" cy="13" r="1" fill="#f1bc19"/><circle cx="83" cy="15" r="4" fill="#f1bc19"/><circle cx="87" cy="24" r="2" fill="#9f8066"/><circle cx="81" cy="76" r="2" fill="#fbcd59"/><circle cx="18" cy="72" r="4" fill="#fbcd59"/><circle cx="25" cy="87" r="2" fill="#9f8066"/><circle cx="20.5" cy="62.5" r="2.5" fill="#fff"/><circle cx="26" cy="73" r="1" fill="#f1bc19"/><circle cx="80" cy="34" r="1" fill="#fff"/><path fill="#f1bc19" d="M37.214,52.079h-0.005c-0.067,0.002-0.136,0.005-0.208,0.01c-0.225,0.012-0.477,0.029-0.769,0.039 c-0.471,0.025-0.936,0.041-1.427,0.053c-0.555,0.012-1.239,0.019-2.036,0.019c-1.243-0.007-2.357-0.028-3.308-0.063 c-0.976-0.035-1.76-0.051-2.399-0.058h-0.01c-0.054,0.047-0.096,0.153-0.131,0.339c-0.03,0.191-0.041,0.364-0.029,0.517 c0.015,0.181,0.054,0.284,0.121,0.339l0.005,0.005c0.639,0.077,1.149,0.144,1.562,0.203c0.421,0.054,0.814,0.121,1.166,0.203 c0.394,0.104,0.694,0.24,0.895,0.406c0.208,0.161,0.356,0.385,0.445,0.663c0.087,0.275,0.142,0.64,0.164,1.083 c0.02,0.696,0.027,1.412,0.019,2.128c-0.008,0.713-0.042,1.397-0.102,2.031c-0.035,0.357-0.12,0.682-0.266,1.006 c-0.136,0.314-0.346,0.548-0.629,0.696c-0.295,0.186-0.678,0.322-1.141,0.401c-0.46,0.087-0.992,0.126-1.581,0.126 c-1.837-0.007-3.469-0.326-4.846-0.953c-1.377-0.619-2.549-1.504-3.477-2.631c-0.929-1.124-1.631-2.448-2.094-3.941 c-0.463-1.486-0.701-3.131-0.701-4.894c0-1.674,0.196-3.213,0.58-4.57c0.391-1.387,0.959-2.542,1.741-3.535 c0.775-0.983,1.762-1.755,2.936-2.288c1.174-0.53,2.57-0.8,4.149-0.808c0.904,0,1.67,0.044,2.336,0.131 c0.676,0.089,1.279,0.219,1.794,0.387c0.51,0.166,0.986,0.376,1.407,0.624c0.389,0.22,0.705,0.513,0.967,0.895 c0.26,0.374,0.468,0.887,0.624,1.519c0.166,0.651,0.302,1.483,0.401,2.471v0.005h0.005c0.082,0.054,0.215,0.084,0.421,0.092 c0.223,0,0.405-0.021,0.571-0.058c0.186-0.032,0.308-0.085,0.368-0.16v-0.005c0.015-0.505,0.047-1.037,0.092-1.577 c0.052-0.649,0.107-1.232,0.169-1.785c0.084-0.683,0.158-1.234,0.232-1.727c0.079-0.532,0.162-0.997,0.247-1.388v-0.015h-0.015 c-0.775-0.084-1.573-0.195-2.442-0.339c-0.745-0.129-1.577-0.251-2.612-0.382c-0.933-0.111-1.948-0.169-3.018-0.174 c-1.585,0-3.036,0.125-4.309,0.372c-1.32,0.262-2.51,0.645-3.642,1.175c-1.481,0.671-2.773,1.577-3.835,2.694 c-1.065,1.119-1.899,2.444-2.476,3.937c-0.57,1.501-0.866,3.169-0.871,4.957c0.007,2.862,0.564,5.319,1.654,7.303 c0.547,0.995,1.233,1.88,2.046,2.636c0.812,0.755,1.771,1.402,2.848,1.92c2.149,1.03,4.844,1.557,8.014,1.562 c0.889-0.007,1.797-0.07,2.699-0.184c0.963-0.131,1.808-0.274,2.578-0.44c0.805-0.168,1.53-0.342,2.162-0.513 c0.688-0.188,1.134-0.312,1.451-0.411h0.005l0.005-0.005c0.03-0.054,0.058-0.138,0.077-0.252c0.025-0.109,0.036-0.227,0.048-0.339 l0.005-0.019c0.007-0.139,0.003-0.212-0.01-0.256v-0.005h-0.005c-0.272-0.106-0.499-0.225-0.653-0.334 c-0.136-0.097-0.231-0.217-0.28-0.348c-0.047-0.129-0.075-0.29-0.082-0.493c-0.02-0.203-0.034-0.494-0.039-0.861 c-0.008-0.374-0.01-0.79-0.01-1.228c0.007-0.448,0.012-0.892,0.019-1.32c0.005-0.265,0.012-0.512,0.019-0.73 c0.005-0.136,0.007-0.263,0.01-0.382c0.015-0.597,0.091-1.028,0.237-1.325c0.141-0.297,0.402-0.508,0.774-0.619 c0.193-0.064,0.403-0.12,0.624-0.16c0.228-0.047,0.478-0.086,0.716-0.126l0.01-0.005c0.054-0.055,0.089-0.167,0.111-0.353 c0.022-0.191,0.029-0.364,0.014-0.532c-0.012-0.186-0.04-0.296-0.082-0.353L37.214,52.079z"/><path fill="#f1bc19" d="M91.312,37.556c-0.087-0.045-0.175-0.068-0.242-0.068c-0.386,0.176-0.758,0.307-1.132,0.397 c-0.367,0.087-0.775,0.147-1.224,0.174c-0.448,0.027-0.977,0.039-1.596,0.039l-15.365,0.01c-0.753,0-1.399-0.06-1.944-0.169 c-0.545-0.109-0.992-0.257-1.359-0.44c-0.027-0.012-0.083-0.01-0.15,0.01c-0.074,0.012-0.136,0.036-0.198,0.063 S68.008,37.637,68,37.664c-0.02,0.448-0.062,0.963-0.116,1.548c-0.054,0.584-0.122,1.197-0.198,1.828 c-0.082,0.631-0.162,1.241-0.251,1.818c-0.082,0.584-0.17,1.095-0.251,1.528c0.04,0.067,0.146,0.136,0.324,0.203 c0.183,0.062,0.37,0.113,0.561,0.14c0.191,0.027,0.308,0.025,0.377-0.015c0.191-0.522,0.378-1.019,0.561-1.499 c0.183-0.475,0.356-0.917,0.527-1.306c0.171-0.394,0.34-0.729,0.503-0.987c0.245-0.401,0.504-0.692,0.784-0.861 c0.277-0.171,0.582-0.266,0.928-0.28c0.401-0.012,0.861-0.022,1.383-0.029c0.522,0,1.044-0.005,1.567-0.005 c0.53,0,1.001,0.005,1.417,0.005c0.414,0.007,0.711,0.014,0.895,0.029c0.067,0,0.127,0.035,0.189,0.102 c0.062,0.062,0.092,0.138,0.097,0.227c0,1.364-0.002,2.771-0.01,4.232c0,1.461-0.005,2.907-0.01,4.348 c-0.007,1.434-0.024,2.799-0.039,4.091c-0.015,1.297-0.026,2.457-0.039,3.482c-0.02,1.033-0.041,1.869-0.068,2.515 c-0.007,0.624-0.044,1.134-0.126,1.543c-0.082,0.401-0.232,0.713-0.45,0.938c-0.218,0.225-0.546,0.373-0.972,0.455 c-0.305,0.082-0.702,0.156-1.199,0.218c-0.49,0.067-1.054,0.127-1.693,0.189c-0.04,0.062-0.07,0.178-0.092,0.334 c-0.02,0.163-0.017,0.325-0.01,0.488c0.012,0.163,0.047,0.288,0.102,0.363c0.53-0.007,1.313-0.028,2.346-0.063 s2.303-0.055,3.811-0.063c0.834,0,1.643,0.012,2.418,0.034c0.775,0.02,1.482,0.033,2.109,0.053 c0.631,0.02,1.146,0.039,1.548,0.039c0.067-0.035,0.122-0.136,0.165-0.3c0.035-0.163,0.055-0.327,0.063-0.503 c-0.002-0.176-0.028-0.308-0.068-0.382c-0.468-0.054-0.872-0.098-1.204-0.14c-0.332-0.04-0.625-0.093-0.871-0.14 c-0.253-0.047-0.481-0.1-0.692-0.169c-0.312-0.074-0.559-0.197-0.75-0.353c-0.191-0.156-0.331-0.383-0.435-0.667 c-0.094-0.292-0.163-0.673-0.203-1.141c-0.02-0.359-0.038-0.936-0.053-1.736c-0.012-0.802-0.024-1.763-0.039-2.878 c-0.007-1.114-0.012-2.308-0.019-3.598c0-1.29-0.005-2.595-0.005-3.927c-0.007-1.332-0.01-2.616-0.01-3.854v-3.371 c0-0.067,0.019-0.129,0.053-0.198c0.04-0.062,0.09-0.106,0.15-0.126c0.245-0.012,0.585-0.022,1.021-0.029 c0.436,0,0.925-0.005,1.47-0.005c0.542,0,1.092,0,1.649,0.005c0.565,0.003,1.369,0.004,1.852,0.019 c0.386,0.012,0.707,0.117,0.967,0.3c0.258,0.183,0.463,0.474,0.624,0.88c0.104,0.26,0.201,0.586,0.285,0.967 c0.087,0.389,0.156,0.802,0.218,1.257c0.062,0.456,0.11,0.924,0.15,1.407c0.035,0.04,0.116,0.065,0.237,0.087 c0.121,0.02,0.262,0.032,0.411,0.029c0.156-0.002,0.295-0.014,0.416-0.039c0.121-0.027,0.202-0.067,0.237-0.116 c0.054-0.557,0.11-1.162,0.174-1.809c0.064-0.644,0.138-1.283,0.218-1.93c0.077-0.639,0.162-1.235,0.256-1.785 c0.092-0.545,0.189-1.002,0.29-1.369C91.454,37.645,91.403,37.601,91.312,37.556z"/><path fill="#f1bc19" d="M63.702,42.421c-0.671-1.077-1.514-2.024-2.529-2.834c-1.008-0.81-2.191-1.443-3.535-1.896 c-1.352-0.453-2.86-0.684-4.541-0.692c-1.062,0-2.125,0.132-3.187,0.377c-1.057,0.248-2.074,0.606-3.047,1.064 c-0.973,0.461-1.865,1.005-2.674,1.644c-0.817,0.644-1.505,1.35-2.075,2.138c-0.822,1.132-1.455,2.363-1.896,3.68 c-0.433,1.325-0.65,2.743-0.658,4.266c-0.007,1.86,0.272,3.629,0.841,5.31s1.47,3.201,2.699,4.565 c0.713,0.775,1.545,1.443,2.486,1.997c0.941,0.555,1.98,0.989,3.124,1.291c1.139,0.302,2.373,0.452,3.69,0.459 c1.387,0,2.735-0.208,4.067-0.614c1.33-0.404,2.575-1.006,3.733-1.809c1.159-0.795,2.168-1.791,3.027-2.969 c0.562-0.775,1.029-1.598,1.398-2.457c0.371-0.864,0.651-1.795,0.837-2.795s0.276-2.107,0.276-3.308 c-0.003-1.352-0.176-2.652-0.513-3.908C64.889,44.67,64.381,43.503,63.702,42.421z M61.511,54.913 c-0.228,1.156-0.6,2.217-1.103,3.158c-0.503,0.951-1.184,1.785-2.031,2.481c-0.54,0.458-1.181,0.804-1.959,1.064 c-0.094,0.03-0.191,0.06-0.285,0.087l-0.014,0.005v-0.24c-0.257,0.156-0.522,0.295-0.802,0.404l0.097-0.004 c-0.041,0.007-0.083,0.01-0.124,0.016C52.533,62.944,48.796,61.286,47,59c-0.366-0.466-0.597-0.433-0.802-0.929 c-0.541-0.752-1.004-1.561-1.367-2.423c-0.423-1.005-0.742-2.071-0.948-3.158s-0.31-2.187-0.31-3.269 c0-1.404,0.159-2.742,0.474-3.98c0.312-1.238,0.802-2.361,1.456-3.337c0.654-0.978,1.488-1.773,2.481-2.365 c0.342-0.191,0.707-0.355,1.088-0.488l0.019-0.01v0.374c0.539-0.308,1.195-0.49,1.971-0.484c1.795,0.014,3.455,0.184,5.056,0.905 v-0.157l0.019,0.01c0.332,0.176,0.653,0.372,0.962,0.59c0.797,0.557,1.511,1.248,2.118,2.051c0.584,0.78,1.081,1.665,1.475,2.636 c0.381,0.948,0.67,1.972,0.861,3.042c0.186,1.035,0.285,2.135,0.285,3.274C61.848,52.544,61.737,53.764,61.511,54.913z"/><path fill="#472b29" d="M91.07,37.488c0.067,0,0.155,0.023,0.242,0.068c0.092,0.045,0.142,0.088,0.169,0.135 c-0.101,0.367-0.198,0.824-0.29,1.369c-0.094,0.55-0.18,1.146-0.256,1.785c-0.079,0.646-0.153,1.286-0.218,1.93 c-0.064,0.646-0.12,1.252-0.174,1.809c-0.035,0.049-0.116,0.089-0.237,0.116c-0.121,0.025-0.26,0.036-0.416,0.039 c-0.013,0-0.027,0-0.04,0c-0.134,0-0.261-0.011-0.371-0.029c-0.121-0.022-0.202-0.047-0.237-0.087 c-0.04-0.483-0.088-0.952-0.15-1.407s-0.131-0.869-0.218-1.257c-0.084-0.381-0.181-0.707-0.285-0.967 c-0.161-0.406-0.366-0.697-0.624-0.88c-0.26-0.183-0.581-0.287-0.967-0.3c-0.483-0.015-1.288-0.017-1.852-0.019 c-0.529-0.005-1.052-0.005-1.568-0.005c-0.027,0-0.054,0-0.081,0c-0.545,0-1.034,0.005-1.47,0.005 c-0.436,0.007-0.775,0.017-1.021,0.029c-0.059,0.02-0.11,0.064-0.15,0.126c-0.035,0.069-0.053,0.131-0.053,0.198v3.371 c0,1.238,0.002,2.522,0.01,3.854c0,1.332,0.005,2.637,0.005,3.927c0.007,1.29,0.012,2.484,0.019,3.598 c0.015,1.114,0.026,2.075,0.039,2.878c0.015,0.8,0.033,1.377,0.053,1.736c0.04,0.468,0.109,0.849,0.203,1.141 c0.104,0.285,0.245,0.511,0.435,0.667c0.191,0.156,0.438,0.279,0.75,0.353c0.21,0.069,0.439,0.122,0.692,0.169 c0.245,0.047,0.539,0.101,0.871,0.14c0.332,0.042,0.736,0.086,1.204,0.14c0.04,0.074,0.065,0.206,0.068,0.382 c-0.007,0.176-0.028,0.34-0.063,0.503c-0.042,0.163-0.098,0.265-0.165,0.3c-0.401,0-0.916-0.019-1.547-0.039 c-0.626-0.02-1.333-0.033-2.109-0.053c-0.775-0.022-1.584-0.034-2.418-0.034c-1.508,0.007-2.778,0.028-3.811,0.063 c-1.032,0.035-1.816,0.055-2.346,0.063c-0.055-0.074-0.089-0.199-0.102-0.363c-0.007-0.163-0.01-0.325,0.01-0.488 c0.022-0.156,0.052-0.272,0.092-0.334c0.639-0.062,1.202-0.122,1.693-0.189c0.498-0.062,0.895-0.136,1.199-0.218 c0.426-0.082,0.754-0.229,0.972-0.455c0.218-0.225,0.368-0.537,0.45-0.938c0.082-0.409,0.118-0.919,0.126-1.543 c0.027-0.646,0.048-1.482,0.068-2.515c0.012-1.025,0.024-2.185,0.039-3.482c0.015-1.293,0.031-2.658,0.039-4.091 c0.005-1.441,0.01-2.887,0.01-4.348c0.007-1.461,0.01-2.867,0.01-4.232c-0.005-0.089-0.035-0.165-0.097-0.227 c-0.062-0.067-0.122-0.102-0.189-0.102c-0.183-0.015-0.481-0.022-0.895-0.029c-0.416,0-0.887-0.005-1.417-0.005 c-0.522,0-1.044,0.005-1.567,0.005c-0.523,0.007-0.982,0.017-1.383,0.029c-0.347,0.015-0.651,0.11-0.928,0.28 c-0.28,0.168-0.538,0.46-0.783,0.861c-0.163,0.258-0.332,0.593-0.503,0.987c-0.171,0.389-0.344,0.83-0.527,1.306 c-0.183,0.48-0.37,0.977-0.561,1.499c-0.039,0.022-0.093,0.033-0.167,0.033c-0.057,0-0.127-0.006-0.21-0.018 c-0.191-0.027-0.378-0.078-0.561-0.14c-0.178-0.067-0.285-0.136-0.324-0.203c0.082-0.433,0.17-0.944,0.251-1.528 c0.089-0.577,0.17-1.187,0.251-1.818c0.077-0.631,0.144-1.244,0.198-1.828s0.096-1.099,0.116-1.548 c0.007-0.027,0.04-0.065,0.102-0.092s0.124-0.05,0.198-0.063c0.04-0.012,0.075-0.017,0.104-0.017 c0.019,0,0.035,0.003,0.046,0.008c0.366,0.183,0.814,0.331,1.359,0.44c0.545,0.109,1.191,0.169,1.944,0.169l15.365-0.01 c0.619,0,1.148-0.011,1.596-0.039c0.448-0.027,0.857-0.087,1.224-0.174C90.312,37.796,90.684,37.664,91.07,37.488 M91.07,36.088 c-0.2,0-0.398,0.043-0.58,0.126c-0.31,0.141-0.597,0.242-0.876,0.309c-0.297,0.07-0.629,0.117-0.984,0.138 c-0.4,0.024-0.894,0.036-1.511,0.036l-15.365,0.01c-0.636,0-1.197-0.048-1.669-0.142c-0.407-0.082-0.746-0.189-1.007-0.319 c-0.016-0.008-0.032-0.016-0.049-0.023c-0.181-0.082-0.424-0.132-0.624-0.132c0,0,0,0-0.001,0c-0.136,0-0.276,0.017-0.415,0.052 c-0.195,0.041-0.347,0.102-0.449,0.146c-0.447,0.197-0.771,0.565-0.891,1.01c-0.027,0.099-0.042,0.2-0.047,0.302 c-0.016,0.373-0.051,0.829-0.111,1.479c-0.053,0.572-0.119,1.171-0.194,1.789c-0.079,0.609-0.158,1.207-0.245,1.773 c-0.071,0.506-0.15,0.984-0.244,1.482c-0.063,0.334-0.002,0.68,0.171,0.973c0.211,0.356,0.55,0.618,1.038,0.801 c0.333,0.113,0.598,0.179,0.854,0.215c0.162,0.023,0.297,0.032,0.408,0.032c0.319,0,0.609-0.073,0.861-0.217 c0.288-0.164,0.508-0.425,0.622-0.737c0.188-0.516,0.373-1.006,0.554-1.48c0.173-0.449,0.338-0.87,0.501-1.241 c0.187-0.43,0.322-0.672,0.403-0.8c0.206-0.336,0.322-0.411,0.323-0.412c0.09-0.055,0.164-0.077,0.266-0.081 c0.378-0.012,0.83-0.021,1.344-0.028l0.77-0.002l0.777-0.002l0.787,0.003l0.41,0.001c-0.001,1.034-0.004,2.093-0.009,3.183 c0,1.466-0.005,2.91-0.01,4.35c-0.007,1.341-0.022,2.624-0.036,3.843l-0.003,0.237l-0.019,1.691l-0.02,1.79 c-0.02,1.009-0.04,1.835-0.067,2.473c-0.008,0.608-0.04,1.029-0.1,1.327c-0.027,0.132-0.061,0.206-0.078,0.232c0,0,0,0-0.001,0 c-0.011,0-0.085,0.032-0.234,0.06c-0.033,0.006-0.067,0.014-0.099,0.023c-0.174,0.047-0.491,0.116-1.009,0.18 c-0.491,0.067-1.037,0.125-1.655,0.184c-0.427,0.041-0.812,0.277-1.044,0.638c-0.153,0.238-0.245,0.513-0.299,0.89 c-0.037,0.301-0.032,0.546-0.022,0.751c0.035,0.473,0.159,0.839,0.372,1.128c0.264,0.359,0.683,0.571,1.128,0.571 c0.007,0,0.013,0,0.02,0c0.536-0.008,1.328-0.028,2.373-0.063c1.007-0.034,2.275-0.055,3.771-0.062 c0.802,0,1.602,0.011,2.371,0.033l0.833,0.02c0.454,0.011,0.879,0.021,1.271,0.033l0.281,0.009c0.522,0.017,0.959,0.03,1.31,0.03 c0.224,0,0.444-0.054,0.643-0.157c0.436-0.225,0.731-0.627,0.877-1.194c0.005-0.02,0.01-0.04,0.014-0.06 c0.051-0.242,0.081-0.482,0.092-0.733c0.001-0.026,0.001-0.052,0.001-0.079c-0.006-0.405-0.082-0.739-0.233-1.022 c-0.216-0.405-0.617-0.678-1.073-0.731l-0.465-0.053c-0.27-0.031-0.513-0.058-0.725-0.085c-0.305-0.036-0.565-0.084-0.783-0.126 c-0.224-0.042-0.386-0.081-0.518-0.124c-0.037-0.012-0.075-0.023-0.114-0.032c-0.073-0.017-0.126-0.038-0.159-0.056 c-0.007-0.013-0.015-0.032-0.026-0.058c-0.043-0.141-0.097-0.391-0.132-0.804c-0.016-0.307-0.034-0.868-0.048-1.644l-0.025-1.814 l-0.014-1.057l-0.011-2.036l-0.008-1.552l-0.002-1.927l-0.002-1.992c-0.007-1.337-0.01-2.619-0.01-3.854v-2.32l0.484-0.002 l0.81-0.003h0.081c0.512,0,1.03,0,1.555,0.005l0.179,0.001c0.535,0.002,1.217,0.005,1.643,0.018 c0.092,0.003,0.166,0.019,0.203,0.044l0,0c-0.003,0,0.055,0.063,0.131,0.253c0.055,0.138,0.136,0.376,0.219,0.753 c0.074,0.33,0.136,0.693,0.198,1.144c0.055,0.407,0.102,0.843,0.142,1.333c0.025,0.299,0.144,0.582,0.342,0.808 c0.367,0.419,0.854,0.508,1.038,0.542c0.221,0.036,0.422,0.052,0.624,0.052c0.008,0,0.055,0,0.063,0 c0.251-0.004,0.472-0.026,0.672-0.067c0.501-0.112,0.863-0.341,1.104-0.685c0.138-0.197,0.223-0.427,0.247-0.667l0.069-0.723 c0.033-0.346,0.067-0.708,0.104-1.083c0.063-0.633,0.136-1.262,0.214-1.898c0.074-0.62,0.157-1.197,0.247-1.719 c0.084-0.499,0.171-0.912,0.26-1.232c0.1-0.362,0.051-0.75-0.138-1.075c-0.171-0.295-0.429-0.528-0.769-0.693 C91.669,36.165,91.364,36.088,91.07,36.088L91.07,36.088z"/><path fill="#472b29" d="M27.387,37.121c1.07,0.005,2.084,0.063,3.018,0.174c1.035,0.131,1.866,0.253,2.612,0.382 c0.869,0.144,1.667,0.254,2.442,0.339h0.015v0.014c-0.084,0.391-0.167,0.856-0.247,1.388c-0.074,0.493-0.148,1.043-0.232,1.727 c-0.062,0.552-0.117,1.136-0.169,1.785c-0.045,0.54-0.077,1.071-0.092,1.577v0.005c-0.059,0.074-0.182,0.127-0.367,0.16 c-0.166,0.037-0.348,0.058-0.571,0.058c-0.206-0.007-0.339-0.037-0.421-0.092H33.37v-0.005c-0.099-0.988-0.236-1.82-0.401-2.471 c-0.156-0.631-0.364-1.145-0.624-1.519c-0.262-0.381-0.578-0.674-0.967-0.895c-0.421-0.248-0.897-0.458-1.407-0.624 c-0.515-0.168-1.118-0.298-1.794-0.387c-0.666-0.087-1.432-0.131-2.336-0.131c-1.58,0.007-2.976,0.278-4.149,0.808 c-1.174,0.532-2.161,1.304-2.936,2.288c-0.782,0.993-1.35,2.149-1.741,3.535c-0.384,1.357-0.58,2.896-0.58,4.57 c0,1.763,0.238,3.409,0.701,4.894c0.463,1.493,1.166,2.817,2.094,3.941c0.928,1.127,2.1,2.012,3.477,2.631 c1.377,0.626,3.009,0.945,4.846,0.953c0.589,0,1.121-0.039,1.581-0.126c0.463-0.079,0.847-0.216,1.141-0.401 c0.282-0.149,0.492-0.382,0.629-0.696c0.146-0.324,0.231-0.649,0.266-1.006c0.059-0.634,0.094-1.318,0.102-2.031 c0.007-0.716,0-1.432-0.019-2.128c-0.022-0.443-0.078-0.808-0.165-1.083c-0.089-0.277-0.237-0.502-0.445-0.663 c-0.201-0.166-0.501-0.302-0.895-0.406c-0.352-0.082-0.745-0.149-1.166-0.203c-0.413-0.059-0.923-0.126-1.562-0.203l-0.005-0.005 c-0.067-0.055-0.106-0.158-0.121-0.339c-0.012-0.154-0.001-0.327,0.029-0.518c0.035-0.186,0.076-0.292,0.131-0.339h0.005h0.005 c0.639,0.007,1.423,0.023,2.399,0.058c0.951,0.035,2.065,0.055,3.308,0.063c0.797,0,1.481-0.007,2.036-0.019 c0.49-0.012,0.956-0.028,1.427-0.053c0.292-0.01,0.543-0.026,0.769-0.039c0.072-0.005,0.141-0.007,0.208-0.01h0.005l0.005,0.005 c0.042,0.057,0.07,0.167,0.082,0.353c0.015,0.168,0.008,0.341-0.015,0.532c-0.022,0.186-0.057,0.299-0.111,0.353l-0.01,0.005 c-0.238,0.04-0.488,0.079-0.716,0.126c-0.22,0.04-0.431,0.095-0.624,0.16c-0.371,0.111-0.633,0.322-0.774,0.619 c-0.146,0.297-0.222,0.728-0.237,1.325c-0.002,0.119-0.005,0.246-0.01,0.382c-0.007,0.218-0.014,0.465-0.019,0.73 c-0.007,0.428-0.012,0.872-0.019,1.32c0,0.438,0.002,0.854,0.01,1.228c0.005,0.366,0.019,0.658,0.039,0.861 c0.007,0.203,0.035,0.365,0.082,0.493c0.05,0.131,0.144,0.252,0.281,0.348c0.153,0.109,0.381,0.227,0.653,0.334h0.005v0.005 c0.012,0.045,0.017,0.118,0.01,0.256l-0.005,0.019c-0.012,0.111-0.024,0.23-0.048,0.339c-0.02,0.114-0.048,0.197-0.077,0.252 l-0.005,0.005h-0.005c-0.317,0.099-0.763,0.223-1.451,0.411c-0.631,0.171-1.357,0.344-2.162,0.513 c-0.77,0.166-1.615,0.309-2.578,0.44c-0.901,0.114-1.81,0.176-2.699,0.184c-3.169-0.005-5.864-0.532-8.014-1.562 c-1.077-0.518-2.036-1.165-2.849-1.92c-0.812-0.755-1.499-1.64-2.046-2.636c-1.09-1.983-1.647-4.44-1.654-7.303 c0.005-1.788,0.301-3.457,0.87-4.957c0.577-1.493,1.411-2.817,2.476-3.937c1.062-1.117,2.354-2.023,3.835-2.694 c1.132-0.53,2.322-0.913,3.642-1.175C24.351,37.246,25.802,37.121,27.387,37.121 M27.387,35.721 c-1.679,0-3.219,0.134-4.576,0.398c-1.442,0.287-2.738,0.706-3.968,1.281c-1.634,0.74-3.071,1.751-4.256,2.997 c-1.194,1.255-2.125,2.734-2.768,4.397c-0.636,1.674-0.959,3.508-0.965,5.458c0.008,3.106,0.623,5.788,1.827,7.981 c0.619,1.127,1.4,2.132,2.319,2.987c0.917,0.853,1.992,1.579,3.196,2.157c2.343,1.123,5.242,1.695,8.618,1.7 c0.953-0.008,1.916-0.073,2.876-0.195c1.028-0.14,1.906-0.29,2.697-0.46c0.799-0.167,1.553-0.346,2.233-0.53 c0.691-0.189,1.144-0.315,1.47-0.416c0.225-0.064,0.434-0.183,0.603-0.349c0.098-0.097,0.186-0.212,0.252-0.333 c0.101-0.186,0.176-0.404,0.221-0.648c0.028-0.133,0.046-0.272,0.061-0.408c0.008-0.051,0.014-0.102,0.017-0.149 c0.01-0.182,0.012-0.396-0.038-0.621c-0.102-0.484-0.454-0.878-0.915-1.037c-0.031-0.013-0.06-0.025-0.087-0.037 c-0.01-0.117-0.023-0.335-0.028-0.694c-0.007-0.374-0.01-0.781-0.01-1.209l0.009-0.615l0.01-0.681 c0.005-0.255,0.012-0.495,0.019-0.707c0.005-0.122,0.007-0.242,0.009-0.355c0.009-0.383,0.043-0.591,0.068-0.695 c0.137-0.045,0.277-0.08,0.416-0.105c0.202-0.041,0.383-0.071,0.56-0.1l0.138-0.023c0.137-0.023,0.271-0.066,0.396-0.129 c0.134-0.067,0.266-0.16,0.372-0.266c0.378-0.377,0.474-0.852,0.513-1.177c0.036-0.307,0.042-0.567,0.019-0.823 c-0.017-0.259-0.074-0.687-0.35-1.06c-0.044-0.059-0.092-0.115-0.144-0.166c-0.262-0.258-0.62-0.408-0.988-0.408 c-0.017,0-0.039,0-0.056,0.001c-0.094,0.003-0.172,0.006-0.253,0.012L36.767,50.7c-0.175,0.01-0.367,0.021-0.582,0.028 c-0.484,0.025-0.938,0.041-1.415,0.053c-0.542,0.012-1.215,0.019-2.001,0.019c-1.235-0.007-2.334-0.028-3.257-0.062 c-0.991-0.035-1.786-0.051-2.434-0.059c-0.005,0-0.011,0-0.016,0c-0.336,0-0.67,0.121-0.925,0.34 c-0.405,0.35-0.532,0.819-0.592,1.141c-0.056,0.353-0.069,0.629-0.048,0.886c0.046,0.56,0.254,0.996,0.617,1.299 c0.208,0.175,0.467,0.289,0.737,0.322c0.626,0.075,1.125,0.141,1.53,0.199c0.41,0.053,0.756,0.113,1.048,0.181 c0.193,0.051,0.29,0.105,0.318,0.122c0.033,0.103,0.084,0.321,0.105,0.737c0.018,0.659,0.025,1.357,0.018,2.043 c-0.007,0.668-0.039,1.312-0.096,1.915c-0.02,0.203-0.066,0.377-0.149,0.561l-0.025,0.05c-0.032,0.017-0.043,0.018-0.074,0.037 c-0.08,0.05-0.267,0.144-0.631,0.206c-0.381,0.072-0.826,0.106-1.345,0.106c-1.637-0.007-3.075-0.285-4.266-0.827 c-1.188-0.534-2.187-1.289-2.976-2.247c-0.811-0.981-1.428-2.147-1.837-3.466c-0.424-1.359-0.638-2.866-0.638-4.48 c0-1.543,0.177-2.952,0.527-4.189c0.341-1.21,0.83-2.208,1.494-3.05c0.638-0.81,1.451-1.442,2.414-1.879 c0.988-0.446,2.193-0.676,3.578-0.683c0.829,0,1.534,0.039,2.149,0.119c0.591,0.078,1.11,0.189,1.54,0.329 c0.42,0.137,0.801,0.305,1.132,0.5c0.222,0.126,0.382,0.275,0.524,0.482c0.093,0.133,0.265,0.441,0.418,1.061 c0.152,0.598,0.275,1.355,0.366,2.26c0.043,0.49,0.338,0.909,0.754,1.124c0.367,0.2,0.749,0.237,1.016,0.247 c0.017,0.001,0.034,0.001,0.05,0.001c0.301,0,0.578-0.028,0.844-0.085c0.515-0.096,0.914-0.317,1.187-0.658 c0.199-0.248,0.307-0.557,0.307-0.875c0.013-0.417,0.042-0.923,0.087-1.466c0.051-0.636,0.105-1.205,0.165-1.744 c0.081-0.653,0.153-1.192,0.225-1.674c0.074-0.495,0.151-0.932,0.231-1.302c0.021-0.097,0.031-0.196,0.031-0.295 c0-0.744-0.581-1.366-1.314-1.412c-0.732-0.081-1.49-0.186-2.315-0.323c-0.768-0.133-1.618-0.257-2.664-0.39 c-0.988-0.118-2.057-0.18-3.187-0.185C27.391,35.721,27.389,35.721,27.387,35.721L27.387,35.721z"/><path fill="#472b29" d="M60.694,44.965c-0.394-0.971-0.891-1.856-1.475-2.636c-0.607-0.802-1.311-1.508-2.118-2.051 c-5.426-3.647-9.062-0.77-9.116-0.74c-0.993,0.592-1.827,1.387-2.481,2.365c-0.654,0.976-1.144,2.099-1.456,3.337 c-0.314,1.238-0.474,2.576-0.474,3.98c0,1.082,0.104,2.182,0.31,3.269c0.205,1.087,0.525,2.153,0.948,3.158 c0.421,1,0.971,1.936,1.63,2.786c0.348,0.445,0.737,0.852,1.155,1.228c0.828,0.825,2.986,2.651,5.867,2.651 c1.081,0,2.267-0.28,3.516-0.946c0.515-0.225,0.985-0.482,1.379-0.815c0.847-0.696,1.529-1.53,2.031-2.481 c0.503-0.941,0.875-2.002,1.103-3.158c0.225-1.149,0.336-2.369,0.329-3.632c0-1.139-0.1-2.239-0.285-3.274 C61.364,46.937,61.075,45.914,60.694,44.965z M49.092,40.51c0.662-0.396,1.635-0.823,2.783-0.885v21.062 c-1.207-0.344-2.167-1.013-2.783-1.547V40.51z M46.122,55.105c-0.384-0.913-0.675-1.88-0.863-2.875 c-0.189-1.001-0.285-2.013-0.285-3.009c0-1.287,0.145-2.51,0.431-3.635c0.273-1.085,0.698-2.06,1.262-2.902 c0.298-0.446,0.641-0.845,1.025-1.194v16.242c-0.043-0.053-0.086-0.106-0.128-0.16C46.978,56.817,46.492,55.985,46.122,55.105z M53.275,60.906V39.749c0.906,0.209,1.87,0.705,2.844,1.625v18.875C55.102,60.747,54.146,60.932,53.275,60.906z M60.137,54.644 c-0.2,1.013-0.524,1.945-0.964,2.768c-0.413,0.782-0.969,1.464-1.655,2.034V42.483c0.205,0.218,0.4,0.448,0.583,0.691 c0.511,0.683,0.948,1.464,1.295,2.318c0.342,0.851,0.605,1.782,0.78,2.761c0.175,0.975,0.264,1.994,0.264,3.028 C60.447,52.456,60.345,53.584,60.137,54.644z"/><path fill="#472b29" d="M66.578,45.57c-0.369-1.382-0.937-2.692-1.689-3.892c-0.753-1.209-1.71-2.282-2.843-3.185 c-1.127-0.905-2.461-1.622-3.961-2.128c-1.491-0.5-3.167-0.757-4.982-0.765c-0.002,0-0.004,0-0.006,0 c-1.136,0-2.314,0.139-3.502,0.413c-1.138,0.267-2.257,0.657-3.328,1.161c-1.077,0.51-2.067,1.119-2.945,1.812 c-0.93,0.733-1.696,1.523-2.342,2.416c-0.899,1.238-1.603,2.604-2.089,4.057c-0.477,1.458-0.722,3.038-0.73,4.703 c-0.008,2.01,0.3,3.95,0.916,5.766c0.626,1.849,1.63,3.549,2.984,5.053c0.813,0.884,1.757,1.643,2.815,2.267 c1.062,0.626,2.232,1.11,3.478,1.439c1.234,0.327,2.594,0.498,4.039,0.506c1.508,0,3.014-0.227,4.483-0.675 c1.462-0.444,2.85-1.116,4.122-1.997c1.271-0.872,2.404-1.982,3.362-3.296c0.62-0.855,1.142-1.772,1.553-2.729 c0.412-0.959,0.724-1.999,0.927-3.092c0.198-1.069,0.299-2.268,0.299-3.563C67.135,48.382,66.947,46.946,66.578,45.57z M65.462,53.148c-0.186,1-0.465,1.931-0.837,2.795c-0.369,0.859-0.836,1.682-1.398,2.457c-0.859,1.179-1.869,2.175-3.027,2.969 c-1.159,0.802-2.404,1.405-3.734,1.809c-1.332,0.406-2.681,0.614-4.067,0.614c-1.317-0.007-2.551-0.157-3.69-0.459 c-1.144-0.302-2.183-0.737-3.124-1.291c-0.941-0.555-1.773-1.222-2.486-1.997c-1.228-1.364-2.129-2.884-2.699-4.565 s-0.849-3.451-0.842-5.31c0.008-1.523,0.224-2.941,0.658-4.266c0.441-1.317,1.074-2.549,1.896-3.68 c0.569-0.787,1.258-1.494,2.075-2.138c0.81-0.639,1.701-1.184,2.674-1.644c0.973-0.458,1.99-0.816,3.047-1.064 C50.972,37.132,52.034,37,53.096,37c1.681,0.007,3.189,0.238,4.541,0.692c1.345,0.453,2.527,1.086,3.535,1.896 c1.015,0.81,1.858,1.757,2.529,2.834c0.678,1.082,1.187,2.248,1.523,3.511c0.337,1.255,0.51,2.556,0.513,3.908 C65.738,51.041,65.648,52.148,65.462,53.148z"/><path fill="#472b29" d="M16.566,58.93c-0.069,0-0.139-0.028-0.188-0.085c-3.368-3.825-3.131-9.721-3.119-9.97 c0.008-0.138,0.126-0.242,0.262-0.238c0.138,0.007,0.244,0.124,0.238,0.262c-0.003,0.059-0.238,5.945,2.994,9.616 c0.092,0.104,0.081,0.262-0.022,0.353C16.685,58.909,16.625,58.93,16.566,58.93z"/><g><path fill="#472b29" d="M79.68,58.363c-0.138,0-0.25-0.112-0.25-0.25V46.736c0-0.138,0.112-0.25,0.25-0.25 s0.25,0.112,0.25,0.25v11.377C79.93,58.251,79.817,58.363,79.68,58.363z"/></g><g><path fill="#472b29" d="M64.34,50.835c-0.134,0-0.244-0.105-0.25-0.239c-0.22-5.342-3.024-8.645-3.053-8.678 c-0.09-0.104-0.078-0.262,0.026-0.353s0.263-0.078,0.353,0.026c0.12,0.139,2.946,3.469,3.174,8.982 c0.006,0.139-0.102,0.255-0.239,0.261C64.347,50.835,64.343,50.835,64.34,50.835z"/></g></svg>